# xmcd
#
# Track frame offsets:
#	180
#	10205
#	23179
#	38910
#	57830
#	72208
#	84814
#	99146
#	117300
#	129482
#	140362
#	154639
#
# Disc length: 2225 seconds
#
# Revision: 1
# Processed by: cddbd v1.4b41PL3 Copyright (c) Steve Scherf et al.
# Submitted via: audiograbber 1.80
#
DISCID=8c08af0c
DTITLE=Varios - Memórias Musica Sertaneja   30
DYEAR=1900
DGENRE=
TTITLE0=tonico e tinoco - Soldado de Fogo
TTITLE1=Tiào  Carreiro e Pardinho - Rainha do vale
TTITLE2=Paiózinho e Zé Tapera - L[agrimas de Pai
TTITLE3=Mato Grosso e Mathias - Sábado
TTITLE4=Sulino e Marrueiro - Garca Branca
TTITLE5=Liu e  Léu - Morena Espanhola
TTITLE6=Jacó e Jacozinho - Homen sem Rumo
TTITLE7=Cezar e Paulinho - Eu e meu Pai
TTITLE8=Gilberto e Gilmar - O Rico e O Pobre
TTITLE9=Moreno e Moreninho - Enxuga Litro
TTITLE10=Zico e Zeca - Joao   Ninguem
TTITLE11=Canário e  passarinho - Gaiola de Ouro
EXTD=
EXTT0=
EXTT1=
EXTT2=
EXTT3=
EXTT4=
EXTT5=
EXTT6=
EXTT7=
EXTT8=
EXTT9=
EXTT10=
EXTT11=
PLAYORDER=
